<?xml version="1.0" encoding="utf-8"?>
<!-- Generator: Adobe Illustrator 19.0.0, SVG Export Plug-In . SVG Version: 6.00 Build 0)  -->
<svg version="1.1" id="Layer_1" xmlns="http://www.w3.org/2000/svg" xmlns:xlink="http://www.w3.org/1999/xlink" x="0px" y="0px"
	 viewBox="676 -117 1440 320" style="enable-background:new 676 -117 1440 320;" xml:space="preserve">
<style type="text/css">
	.st0{fill:#37C7C9;}
</style>
<path class="st0" d="M676,75l26.7,21.3C729.3,118,783,160,836,149.7C889.3,139,943,75,996,37.7c53.3-37.7,107-47.7,160-48
	c53.3,0.3,107,10.3,160,26.6c53.3,15.7,107,37.7,160,69.4c53.3,32.3,107,74.3,160,48C1689.3,107,1743,11,1796-31.7
	c53.3-42.3,107-32.3,160-16c53.3,15.7,107,37.7,133,48l27,10.7v192h-26.7c-26.6,0-80.3,0-133.3,0c-53.3,0-107,0-160,0
	c-53.3,0-107,0-160,0c-53.3,0-107,0-160,0c-53.3,0-107,0-160,0c-53.3,0-107,0-160,0c-53.3,0-107,0-160,0c-53.3,0-107,0-160,0
	c-53.3,0-107,0-133,0h-27V75z"/>
</svg>
